<mxfile host="65bd71144e">
    <diagram id="YQEeyEsAXImCTdxHAv1M" name="第 1 页">
        <mxGraphModel dx="1089" dy="734" grid="0" gridSize="10" guides="1" tooltips="1" connect="1" arrows="1" fold="1" page="1" pageScale="1" pageWidth="2339" pageHeight="3300" background="#ffffff" math="0" shadow="0">
            <root>
                <mxCell id="0"/>
                <mxCell id="1" parent="0"/>
                <mxCell id="129" value="" style="rounded=1;whiteSpace=wrap;html=1;fontSize=16;fillColor=#E0D3C3;container=0;" vertex="1" parent="1">
                    <mxGeometry x="335" y="1260" width="95" height="260" as="geometry"/>
                </mxCell>
                <mxCell id="131" value="&lt;font style=&quot;font-size: 26px;&quot;&gt;node&lt;/font&gt;" style="text;html=1;align=center;verticalAlign=middle;resizable=0;points=[];autosize=1;strokeColor=none;fillColor=none;fontColor=#000000;" vertex="1" parent="1">
                    <mxGeometry x="342.5" y="1206" width="80" height="40" as="geometry"/>
                </mxCell>
                <mxCell id="132" value="1" style="rounded=1;whiteSpace=wrap;html=1;fontSize=16;fillColor=#D8B29C;fontColor=default;labelBackgroundColor=none;container=0;strokeWidth=4;dashed=1;" vertex="1" parent="1">
                    <mxGeometry x="352.5" y="1276" width="60" height="56" as="geometry"/>
                </mxCell>
                <mxCell id="133" value="1" style="rounded=1;whiteSpace=wrap;html=1;fontSize=16;fillColor=#D8B29C;fontColor=default;labelBackgroundColor=none;container=0;" vertex="1" parent="1">
                    <mxGeometry x="352.5" y="1361" width="60" height="56" as="geometry"/>
                </mxCell>
                <mxCell id="183" value="" style="edgeStyle=none;html=1;fontSize=26;fontColor=#000000;" edge="1" parent="1" source="134" target="180">
                    <mxGeometry relative="1" as="geometry"/>
                </mxCell>
                <mxCell id="184" value="" style="edgeStyle=none;html=1;fontSize=26;fontColor=#000000;" edge="1" parent="1" source="134" target="180">
                    <mxGeometry relative="1" as="geometry"/>
                </mxCell>
                <mxCell id="134" value="1" style="rounded=1;whiteSpace=wrap;html=1;fontSize=16;fillColor=#D8B29C;fontColor=default;labelBackgroundColor=none;container=0;" vertex="1" parent="1">
                    <mxGeometry x="352.5" y="1447" width="60" height="56" as="geometry"/>
                </mxCell>
                <mxCell id="147" value="" style="group" vertex="1" connectable="0" parent="1">
                    <mxGeometry x="479" y="1430" width="108" height="90" as="geometry"/>
                </mxCell>
                <mxCell id="136" value="" style="rounded=1;whiteSpace=wrap;html=1;fontSize=16;fillColor=#E0D3C3;container=0;" vertex="1" parent="147">
                    <mxGeometry width="95" height="90" as="geometry"/>
                </mxCell>
                <mxCell id="140" value="3" style="rounded=1;whiteSpace=wrap;html=1;fontSize=16;fillColor=#D8B29C;fontColor=default;labelBackgroundColor=none;container=0;" vertex="1" parent="147">
                    <mxGeometry x="17.5" y="18" width="60" height="56" as="geometry"/>
                </mxCell>
                <mxCell id="150" value="" style="rounded=1;whiteSpace=wrap;html=1;fontSize=16;fillColor=#E0D3C3;container=0;" vertex="1" parent="1">
                    <mxGeometry x="600" y="1340" width="95" height="177" as="geometry"/>
                </mxCell>
                <mxCell id="151" value="5" style="rounded=1;whiteSpace=wrap;html=1;fontSize=16;fillColor=#D8B29C;fontColor=default;labelBackgroundColor=none;container=0;strokeWidth=4;dashed=1;" vertex="1" parent="1">
                    <mxGeometry x="617.5" y="1447" width="60" height="56" as="geometry"/>
                </mxCell>
                <mxCell id="155" value="5" style="rounded=1;whiteSpace=wrap;html=1;fontSize=16;fillColor=#D8B29C;fontColor=default;labelBackgroundColor=none;container=0;dashed=1;strokeWidth=4;" vertex="1" parent="1">
                    <mxGeometry x="617.5" y="1361" width="60" height="56" as="geometry"/>
                </mxCell>
                <mxCell id="163" value="" style="rounded=1;whiteSpace=wrap;html=1;fontSize=16;fillColor=#E0D3C3;container=0;" vertex="1" parent="1">
                    <mxGeometry x="871" y="1340" width="95" height="177" as="geometry"/>
                </mxCell>
                <mxCell id="164" value="9" style="rounded=1;whiteSpace=wrap;html=1;fontSize=16;fillColor=#D8B29C;fontColor=default;labelBackgroundColor=none;container=0;" vertex="1" parent="1">
                    <mxGeometry x="888.5" y="1361" width="60" height="56" as="geometry"/>
                </mxCell>
                <mxCell id="165" value="9" style="rounded=1;whiteSpace=wrap;html=1;fontSize=16;fillColor=#D8B29C;fontColor=default;labelBackgroundColor=none;container=0;" vertex="1" parent="1">
                    <mxGeometry x="888.5" y="1447" width="60" height="56" as="geometry"/>
                </mxCell>
                <mxCell id="166" value="" style="endArrow=classic;html=1;fontSize=24;exitX=1;exitY=0.5;exitDx=0;exitDy=0;strokeWidth=4;edgeStyle=elbowEdgeStyle;strokeColor=#5E5D65;entryX=0;entryY=0.5;entryDx=0;entryDy=0;" edge="1" parent="1" source="133" target="155">
                    <mxGeometry width="50" height="50" relative="1" as="geometry">
                        <mxPoint x="537.75" y="1087" as="sourcePoint"/>
                        <mxPoint x="610" y="1390" as="targetPoint"/>
                        <Array as="points"/>
                    </mxGeometry>
                </mxCell>
                <mxCell id="167" value="" style="endArrow=classic;html=1;fontSize=24;strokeWidth=4;edgeStyle=elbowEdgeStyle;strokeColor=#5E5D65;entryX=0;entryY=0.5;entryDx=0;entryDy=0;exitX=1;exitY=0.5;exitDx=0;exitDy=0;" edge="1" parent="1" source="155" target="164">
                    <mxGeometry width="50" height="50" relative="1" as="geometry">
                        <mxPoint x="790" y="1340" as="sourcePoint"/>
                        <mxPoint x="627.5" y="1399" as="targetPoint"/>
                        <Array as="points"/>
                    </mxGeometry>
                </mxCell>
                <mxCell id="168" value="" style="endArrow=classic;html=1;fontSize=24;exitX=1;exitY=0.5;exitDx=0;exitDy=0;strokeWidth=4;edgeStyle=elbowEdgeStyle;strokeColor=#5E5D65;entryX=0;entryY=0.5;entryDx=0;entryDy=0;" edge="1" parent="1" source="134" target="140">
                    <mxGeometry width="50" height="50" relative="1" as="geometry">
                        <mxPoint x="422.5" y="1399" as="sourcePoint"/>
                        <mxPoint x="627.5" y="1399" as="targetPoint"/>
                        <Array as="points"/>
                    </mxGeometry>
                </mxCell>
                <mxCell id="169" value="" style="group" vertex="1" connectable="0" parent="1">
                    <mxGeometry x="735" y="1430" width="95" height="90" as="geometry"/>
                </mxCell>
                <mxCell id="170" value="" style="rounded=1;whiteSpace=wrap;html=1;fontSize=16;fillColor=#E0D3C3;container=0;" vertex="1" parent="169">
                    <mxGeometry width="95" height="90" as="geometry"/>
                </mxCell>
                <mxCell id="171" value="7" style="rounded=1;whiteSpace=wrap;html=1;fontSize=16;fillColor=#D8B29C;fontColor=default;labelBackgroundColor=none;container=0;" vertex="1" parent="169">
                    <mxGeometry x="17.5" y="18" width="60" height="56" as="geometry"/>
                </mxCell>
                <mxCell id="173" value="" style="endArrow=classic;html=1;fontSize=24;exitX=1;exitY=0.5;exitDx=0;exitDy=0;strokeWidth=4;edgeStyle=elbowEdgeStyle;strokeColor=#5E5D65;entryX=0;entryY=0.5;entryDx=0;entryDy=0;" edge="1" parent="1" source="140" target="151">
                    <mxGeometry width="50" height="50" relative="1" as="geometry">
                        <mxPoint x="550" y="1479.2899999999995" as="sourcePoint"/>
                        <mxPoint x="600" y="1520" as="targetPoint"/>
                        <Array as="points"/>
                    </mxGeometry>
                </mxCell>
                <mxCell id="174" value="" style="endArrow=classic;html=1;fontSize=24;exitX=1;exitY=0.5;exitDx=0;exitDy=0;strokeWidth=4;edgeStyle=elbowEdgeStyle;strokeColor=#5E5D65;entryX=0;entryY=0.5;entryDx=0;entryDy=0;" edge="1" parent="1" source="151" target="171">
                    <mxGeometry width="50" height="50" relative="1" as="geometry">
                        <mxPoint x="557.5" y="1486" as="sourcePoint"/>
                        <mxPoint x="627.5" y="1484.9999999999995" as="targetPoint"/>
                        <Array as="points"/>
                    </mxGeometry>
                </mxCell>
                <mxCell id="175" value="" style="endArrow=classic;html=1;fontSize=24;exitX=1;exitY=0.5;exitDx=0;exitDy=0;strokeWidth=4;edgeStyle=elbowEdgeStyle;strokeColor=#5E5D65;entryX=0;entryY=0.5;entryDx=0;entryDy=0;" edge="1" parent="1" source="171" target="165">
                    <mxGeometry width="50" height="50" relative="1" as="geometry">
                        <mxPoint x="687.5" y="1484.9999999999995" as="sourcePoint"/>
                        <mxPoint x="762.5000000000002" y="1486" as="targetPoint"/>
                        <Array as="points"/>
                    </mxGeometry>
                </mxCell>
                <mxCell id="176" value="" style="rounded=1;whiteSpace=wrap;html=1;fontSize=16;fillColor=#8D91AA;container=0;" vertex="1" parent="1">
                    <mxGeometry x="200" y="1257" width="95" height="260" as="geometry"/>
                </mxCell>
                <mxCell id="178" value="" style="rounded=1;whiteSpace=wrap;html=1;fontSize=16;fillColor=#ACD4D6;fontColor=default;labelBackgroundColor=none;container=0;" vertex="1" parent="1">
                    <mxGeometry x="217.5" y="1276" width="60" height="56" as="geometry"/>
                </mxCell>
                <mxCell id="179" value="" style="rounded=1;whiteSpace=wrap;html=1;fontSize=16;fillColor=#ACD4D6;fontColor=default;labelBackgroundColor=none;container=0;" vertex="1" parent="1">
                    <mxGeometry x="217.5" y="1362" width="60" height="56" as="geometry"/>
                </mxCell>
                <mxCell id="180" value="" style="rounded=1;whiteSpace=wrap;html=1;fontSize=16;fillColor=#ACD4D6;fontColor=default;labelBackgroundColor=none;container=0;" vertex="1" parent="1">
                    <mxGeometry x="217.5" y="1447" width="60" height="56" as="geometry"/>
                </mxCell>
                <mxCell id="182" value="" style="endArrow=classic;html=1;fontSize=24;exitX=1;exitY=0.5;exitDx=0;exitDy=0;strokeWidth=4;edgeStyle=elbowEdgeStyle;strokeColor=#5E5D65;" edge="1" parent="1" source="180">
                    <mxGeometry width="50" height="50" relative="1" as="geometry">
                        <mxPoint x="422.5" y="1484.9999999999995" as="sourcePoint"/>
                        <mxPoint x="360" y="1475" as="targetPoint"/>
                        <Array as="points"/>
                    </mxGeometry>
                </mxCell>
                <mxCell id="185" value="" style="endArrow=classic;html=1;fontSize=24;exitX=1;exitY=0.5;exitDx=0;exitDy=0;strokeWidth=4;edgeStyle=elbowEdgeStyle;strokeColor=#5E5D65;entryX=0;entryY=0.5;entryDx=0;entryDy=0;" edge="1" parent="1" source="179" target="133">
                    <mxGeometry width="50" height="50" relative="1" as="geometry">
                        <mxPoint x="287.5" y="1484.9999999999995" as="sourcePoint"/>
                        <mxPoint x="370" y="1485" as="targetPoint"/>
                        <Array as="points"/>
                    </mxGeometry>
                </mxCell>
                <mxCell id="186" value="" style="endArrow=classic;html=1;fontSize=24;exitX=1;exitY=0.5;exitDx=0;exitDy=0;strokeWidth=4;edgeStyle=elbowEdgeStyle;strokeColor=#5E5D65;entryX=0;entryY=0.5;entryDx=0;entryDy=0;" edge="1" parent="1" source="178" target="132">
                    <mxGeometry width="50" height="50" relative="1" as="geometry">
                        <mxPoint x="287.5" y="1399.9999999999995" as="sourcePoint"/>
                        <mxPoint x="362.5" y="1399" as="targetPoint"/>
                        <Array as="points"/>
                    </mxGeometry>
                </mxCell>
                <mxCell id="187" value="&lt;font style=&quot;font-size: 26px;&quot;&gt;head&lt;/font&gt;" style="text;html=1;align=center;verticalAlign=middle;resizable=0;points=[];autosize=1;strokeColor=none;fillColor=none;fontColor=#000000;" vertex="1" parent="1">
                    <mxGeometry x="211" y="1206" width="80" height="40" as="geometry"/>
                </mxCell>
                <mxCell id="188" value="&lt;font style=&quot;font-size: 21px;&quot;&gt;&amp;nbsp;next[1]&lt;/font&gt;" style="text;html=1;strokeColor=none;fillColor=none;align=center;verticalAlign=middle;whiteSpace=wrap;rounded=0;fontSize=18;fontColor=#000000;" vertex="1" parent="1">
                    <mxGeometry x="1063" y="960" width="60" height="30" as="geometry"/>
                </mxCell>
                <mxCell id="190" value="&lt;font style=&quot;font-size: 21px;&quot;&gt;next&lt;/font&gt;&lt;font style=&quot;font-size: 22px;&quot;&gt;[0]&lt;/font&gt;" style="text;html=1;strokeColor=none;fillColor=none;align=center;verticalAlign=middle;whiteSpace=wrap;rounded=0;fontSize=18;fontColor=#000000;" vertex="1" parent="1">
                    <mxGeometry x="1086" y="1070" width="60" height="30" as="geometry"/>
                </mxCell>
                <mxCell id="191" value="" style="endArrow=classic;html=1;fontSize=24;exitX=0.5;exitY=1;exitDx=0;exitDy=0;entryX=1;entryY=0.5;entryDx=0;entryDy=0;strokeWidth=4;strokeColor=#877E7C;" edge="1" parent="1" source="188" target="208">
                    <mxGeometry width="50" height="50" relative="1" as="geometry">
                        <mxPoint x="646" y="1140.7500000000002" as="sourcePoint"/>
                        <mxPoint x="646" y="874" as="targetPoint"/>
                    </mxGeometry>
                </mxCell>
                <mxCell id="193" value="" style="endArrow=classic;html=1;fontSize=24;exitX=0.5;exitY=0;exitDx=0;exitDy=0;entryX=1;entryY=0.5;entryDx=0;entryDy=0;strokeWidth=4;strokeColor=#877E7C;" edge="1" parent="1" source="190" target="209">
                    <mxGeometry width="50" height="50" relative="1" as="geometry">
                        <mxPoint x="1019.9999999999998" y="1365" as="sourcePoint"/>
                        <mxPoint x="958.5" y="1399" as="targetPoint"/>
                    </mxGeometry>
                </mxCell>
                <mxCell id="194" value="" style="rounded=1;whiteSpace=wrap;html=1;fontSize=16;fillColor=#E0D3C3;container=0;" vertex="1" parent="1">
                    <mxGeometry x="325" y="900" width="95" height="260" as="geometry"/>
                </mxCell>
                <mxCell id="195" value="&lt;font style=&quot;font-size: 26px;&quot;&gt;node&lt;/font&gt;" style="text;html=1;align=center;verticalAlign=middle;resizable=0;points=[];autosize=1;strokeColor=none;fillColor=none;fontColor=#000000;" vertex="1" parent="1">
                    <mxGeometry x="332.5" y="846" width="80" height="40" as="geometry"/>
                </mxCell>
                <mxCell id="196" value="1" style="rounded=1;whiteSpace=wrap;html=1;fontSize=16;fillColor=#D8B29C;fontColor=default;labelBackgroundColor=none;container=0;" vertex="1" parent="1">
                    <mxGeometry x="342.5" y="916" width="60" height="56" as="geometry"/>
                </mxCell>
                <mxCell id="197" value="1" style="rounded=1;whiteSpace=wrap;html=1;fontSize=16;fillColor=#D8B29C;fontColor=default;labelBackgroundColor=none;container=0;" vertex="1" parent="1">
                    <mxGeometry x="342.5" y="1001" width="60" height="56" as="geometry"/>
                </mxCell>
                <mxCell id="198" value="" style="edgeStyle=none;html=1;fontSize=26;fontColor=#000000;" edge="1" parent="1" source="200" target="222">
                    <mxGeometry relative="1" as="geometry"/>
                </mxCell>
                <mxCell id="199" value="" style="edgeStyle=none;html=1;fontSize=26;fontColor=#000000;" edge="1" parent="1" source="200" target="222">
                    <mxGeometry relative="1" as="geometry"/>
                </mxCell>
                <mxCell id="200" value="1" style="rounded=1;whiteSpace=wrap;html=1;fontSize=16;fillColor=#D8B29C;fontColor=default;labelBackgroundColor=none;container=0;" vertex="1" parent="1">
                    <mxGeometry x="342.5" y="1087" width="60" height="56" as="geometry"/>
                </mxCell>
                <mxCell id="201" value="" style="group" vertex="1" connectable="0" parent="1">
                    <mxGeometry x="460" y="1070" width="95" height="90" as="geometry"/>
                </mxCell>
                <mxCell id="202" value="" style="rounded=1;whiteSpace=wrap;html=1;fontSize=16;fillColor=#E0D3C3;container=0;" vertex="1" parent="201">
                    <mxGeometry width="95" height="90" as="geometry"/>
                </mxCell>
                <mxCell id="203" value="3" style="rounded=1;whiteSpace=wrap;html=1;fontSize=16;fillColor=#D8B29C;fontColor=default;labelBackgroundColor=none;container=0;" vertex="1" parent="201">
                    <mxGeometry x="17.5" y="18" width="60" height="56" as="geometry"/>
                </mxCell>
                <mxCell id="204" value="" style="rounded=1;whiteSpace=wrap;html=1;fontSize=16;fillColor=#E0D3C3;container=0;" vertex="1" parent="1">
                    <mxGeometry x="590" y="980" width="95" height="177" as="geometry"/>
                </mxCell>
                <mxCell id="205" value="5" style="rounded=1;whiteSpace=wrap;html=1;fontSize=16;fillColor=#D8B29C;fontColor=default;labelBackgroundColor=none;container=0;" vertex="1" parent="1">
                    <mxGeometry x="607.5" y="1087" width="60" height="56" as="geometry"/>
                </mxCell>
                <mxCell id="206" value="5" style="rounded=1;whiteSpace=wrap;html=1;fontSize=16;fillColor=#D8B29C;fontColor=default;labelBackgroundColor=none;container=0;" vertex="1" parent="1">
                    <mxGeometry x="607.5" y="1001" width="60" height="56" as="geometry"/>
                </mxCell>
                <mxCell id="207" value="" style="rounded=1;whiteSpace=wrap;html=1;fontSize=16;fillColor=#E0D3C3;container=0;" vertex="1" parent="1">
                    <mxGeometry x="861" y="980" width="95" height="177" as="geometry"/>
                </mxCell>
                <mxCell id="208" value="9" style="rounded=1;whiteSpace=wrap;html=1;fontSize=16;fillColor=#D8B29C;fontColor=default;labelBackgroundColor=none;container=0;" vertex="1" parent="1">
                    <mxGeometry x="878.5" y="1001" width="60" height="56" as="geometry"/>
                </mxCell>
                <mxCell id="209" value="9" style="rounded=1;whiteSpace=wrap;html=1;fontSize=16;fillColor=#D8B29C;fontColor=default;labelBackgroundColor=none;container=0;" vertex="1" parent="1">
                    <mxGeometry x="878.5" y="1087" width="60" height="56" as="geometry"/>
                </mxCell>
                <mxCell id="210" value="" style="endArrow=classic;html=1;fontSize=24;exitX=1;exitY=0.5;exitDx=0;exitDy=0;strokeWidth=4;edgeStyle=elbowEdgeStyle;strokeColor=#5E5D65;entryX=0;entryY=0.5;entryDx=0;entryDy=0;" edge="1" parent="1" source="197" target="206">
                    <mxGeometry width="50" height="50" relative="1" as="geometry">
                        <mxPoint x="527.75" y="727" as="sourcePoint"/>
                        <mxPoint x="600" y="1030" as="targetPoint"/>
                        <Array as="points"/>
                    </mxGeometry>
                </mxCell>
                <mxCell id="211" value="" style="endArrow=classic;html=1;fontSize=24;strokeWidth=4;edgeStyle=elbowEdgeStyle;strokeColor=#5E5D65;entryX=0;entryY=0.5;entryDx=0;entryDy=0;exitX=1;exitY=0.5;exitDx=0;exitDy=0;" edge="1" parent="1" source="206" target="208">
                    <mxGeometry width="50" height="50" relative="1" as="geometry">
                        <mxPoint x="780" y="980" as="sourcePoint"/>
                        <mxPoint x="617.5" y="1039" as="targetPoint"/>
                        <Array as="points"/>
                    </mxGeometry>
                </mxCell>
                <mxCell id="212" value="" style="endArrow=classic;html=1;fontSize=24;exitX=1;exitY=0.5;exitDx=0;exitDy=0;strokeWidth=4;edgeStyle=elbowEdgeStyle;strokeColor=#5E5D65;entryX=0;entryY=0.5;entryDx=0;entryDy=0;" edge="1" parent="1" source="200" target="203">
                    <mxGeometry width="50" height="50" relative="1" as="geometry">
                        <mxPoint x="412.5" y="1039" as="sourcePoint"/>
                        <mxPoint x="617.5" y="1039" as="targetPoint"/>
                        <Array as="points"/>
                    </mxGeometry>
                </mxCell>
                <mxCell id="213" value="" style="group" vertex="1" connectable="0" parent="1">
                    <mxGeometry x="725" y="1070" width="95" height="90" as="geometry"/>
                </mxCell>
                <mxCell id="214" value="" style="rounded=1;whiteSpace=wrap;html=1;fontSize=16;fillColor=#E0D3C3;container=0;" vertex="1" parent="213">
                    <mxGeometry width="95" height="90" as="geometry"/>
                </mxCell>
                <mxCell id="215" value="7" style="rounded=1;whiteSpace=wrap;html=1;fontSize=16;fillColor=#D8B29C;fontColor=default;labelBackgroundColor=none;container=0;" vertex="1" parent="213">
                    <mxGeometry x="17.5" y="18" width="60" height="56" as="geometry"/>
                </mxCell>
                <mxCell id="216" value="" style="endArrow=classic;html=1;fontSize=24;exitX=1;exitY=0.5;exitDx=0;exitDy=0;strokeWidth=4;edgeStyle=elbowEdgeStyle;strokeColor=#5E5D65;entryX=0;entryY=0.5;entryDx=0;entryDy=0;" edge="1" parent="1" source="203" target="205">
                    <mxGeometry width="50" height="50" relative="1" as="geometry">
                        <mxPoint x="540" y="1119.2899999999995" as="sourcePoint"/>
                        <mxPoint x="590" y="1160" as="targetPoint"/>
                        <Array as="points"/>
                    </mxGeometry>
                </mxCell>
                <mxCell id="217" value="" style="endArrow=classic;html=1;fontSize=24;exitX=1;exitY=0.5;exitDx=0;exitDy=0;strokeWidth=4;edgeStyle=elbowEdgeStyle;strokeColor=#5E5D65;entryX=0;entryY=0.5;entryDx=0;entryDy=0;" edge="1" parent="1" source="205" target="215">
                    <mxGeometry width="50" height="50" relative="1" as="geometry">
                        <mxPoint x="547.5" y="1126" as="sourcePoint"/>
                        <mxPoint x="617.5" y="1124.9999999999995" as="targetPoint"/>
                        <Array as="points"/>
                    </mxGeometry>
                </mxCell>
                <mxCell id="218" value="" style="endArrow=classic;html=1;fontSize=24;exitX=1;exitY=0.5;exitDx=0;exitDy=0;strokeWidth=4;edgeStyle=elbowEdgeStyle;strokeColor=#5E5D65;entryX=0;entryY=0.5;entryDx=0;entryDy=0;" edge="1" parent="1" source="215" target="209">
                    <mxGeometry width="50" height="50" relative="1" as="geometry">
                        <mxPoint x="677.5" y="1124.9999999999995" as="sourcePoint"/>
                        <mxPoint x="752.5000000000002" y="1126" as="targetPoint"/>
                        <Array as="points"/>
                    </mxGeometry>
                </mxCell>
                <mxCell id="219" value="" style="rounded=1;whiteSpace=wrap;html=1;fontSize=16;fillColor=#8D91AA;container=0;" vertex="1" parent="1">
                    <mxGeometry x="190" y="897" width="95" height="260" as="geometry"/>
                </mxCell>
                <mxCell id="220" value="" style="rounded=1;whiteSpace=wrap;html=1;fontSize=16;fillColor=#ACD4D6;fontColor=default;labelBackgroundColor=none;container=0;" vertex="1" parent="1">
                    <mxGeometry x="207.5" y="916" width="60" height="56" as="geometry"/>
                </mxCell>
                <mxCell id="221" value="" style="rounded=1;whiteSpace=wrap;html=1;fontSize=16;fillColor=#ACD4D6;fontColor=default;labelBackgroundColor=none;container=0;" vertex="1" parent="1">
                    <mxGeometry x="207.5" y="1002" width="60" height="56" as="geometry"/>
                </mxCell>
                <mxCell id="222" value="" style="rounded=1;whiteSpace=wrap;html=1;fontSize=16;fillColor=#ACD4D6;fontColor=default;labelBackgroundColor=none;container=0;" vertex="1" parent="1">
                    <mxGeometry x="207.5" y="1087" width="60" height="56" as="geometry"/>
                </mxCell>
                <mxCell id="223" value="" style="endArrow=classic;html=1;fontSize=24;exitX=1;exitY=0.5;exitDx=0;exitDy=0;strokeWidth=4;edgeStyle=elbowEdgeStyle;strokeColor=#5E5D65;" edge="1" parent="1" source="222">
                    <mxGeometry width="50" height="50" relative="1" as="geometry">
                        <mxPoint x="412.5" y="1124.9999999999995" as="sourcePoint"/>
                        <mxPoint x="350" y="1115" as="targetPoint"/>
                        <Array as="points"/>
                    </mxGeometry>
                </mxCell>
                <mxCell id="224" value="" style="endArrow=classic;html=1;fontSize=24;exitX=1;exitY=0.5;exitDx=0;exitDy=0;strokeWidth=4;edgeStyle=elbowEdgeStyle;strokeColor=#5E5D65;entryX=0;entryY=0.5;entryDx=0;entryDy=0;" edge="1" parent="1" source="221" target="197">
                    <mxGeometry width="50" height="50" relative="1" as="geometry">
                        <mxPoint x="277.5" y="1124.9999999999995" as="sourcePoint"/>
                        <mxPoint x="360" y="1125" as="targetPoint"/>
                        <Array as="points"/>
                    </mxGeometry>
                </mxCell>
                <mxCell id="225" value="" style="endArrow=classic;html=1;fontSize=24;exitX=1;exitY=0.5;exitDx=0;exitDy=0;strokeWidth=4;edgeStyle=elbowEdgeStyle;strokeColor=#5E5D65;entryX=0;entryY=0.5;entryDx=0;entryDy=0;" edge="1" parent="1" source="220" target="196">
                    <mxGeometry width="50" height="50" relative="1" as="geometry">
                        <mxPoint x="277.5" y="1039.9999999999995" as="sourcePoint"/>
                        <mxPoint x="352.5" y="1039" as="targetPoint"/>
                        <Array as="points"/>
                    </mxGeometry>
                </mxCell>
                <mxCell id="226" value="&lt;font style=&quot;font-size: 26px;&quot;&gt;head&lt;/font&gt;" style="text;html=1;align=center;verticalAlign=middle;resizable=0;points=[];autosize=1;strokeColor=none;fillColor=none;fontColor=#000000;" vertex="1" parent="1">
                    <mxGeometry x="201" y="846" width="80" height="40" as="geometry"/>
                </mxCell>
                <mxCell id="231" value="&lt;span style=&quot;font-size: 21px;&quot;&gt;prev&lt;/span&gt;" style="text;html=1;strokeColor=none;fillColor=none;align=center;verticalAlign=middle;whiteSpace=wrap;rounded=0;fontSize=18;fontColor=#000000;" vertex="1" parent="1">
                    <mxGeometry x="742.5" y="1276" width="60" height="30" as="geometry"/>
                </mxCell>
                <mxCell id="232" value="" style="endArrow=classic;html=1;fontSize=24;exitX=0;exitY=0.5;exitDx=0;exitDy=0;entryX=1;entryY=0.5;entryDx=0;entryDy=0;strokeWidth=4;strokeColor=#E2E2E2;dashed=1;" edge="1" parent="1" source="231" target="132">
                    <mxGeometry width="50" height="50" relative="1" as="geometry">
                        <mxPoint x="1050" y="1350" as="sourcePoint"/>
                        <mxPoint x="958.5000000000002" y="1399" as="targetPoint"/>
                    </mxGeometry>
                </mxCell>
                <mxCell id="233" value="" style="endArrow=classic;html=1;fontSize=24;exitX=0;exitY=1;exitDx=0;exitDy=0;entryX=1;entryY=0;entryDx=0;entryDy=0;strokeWidth=4;strokeColor=#E2E2E2;dashed=1;" edge="1" parent="1" source="231" target="155">
                    <mxGeometry width="50" height="50" relative="1" as="geometry">
                        <mxPoint x="752.5" y="1301.0000000000002" as="sourcePoint"/>
                        <mxPoint x="422.5" y="1314" as="targetPoint"/>
                    </mxGeometry>
                </mxCell>
                <mxCell id="234" value="" style="endArrow=classic;html=1;fontSize=24;exitX=0.5;exitY=1;exitDx=0;exitDy=0;entryX=1;entryY=0;entryDx=0;entryDy=0;strokeWidth=4;strokeColor=#E2E2E2;dashed=1;" edge="1" parent="1" source="231" target="151">
                    <mxGeometry width="50" height="50" relative="1" as="geometry">
                        <mxPoint x="782.5" y="1316.0000000000002" as="sourcePoint"/>
                        <mxPoint x="687.5" y="1371" as="targetPoint"/>
                    </mxGeometry>
                </mxCell>
                <mxCell id="235" value="①" style="text;html=1;strokeColor=none;fillColor=none;align=center;verticalAlign=middle;whiteSpace=wrap;rounded=0;dashed=1;strokeWidth=4;fontSize=21;fontColor=#000000;" vertex="1" parent="1">
                    <mxGeometry x="198" y="1273" width="60" height="30" as="geometry"/>
                </mxCell>
                <mxCell id="236" value="③" style="text;html=1;strokeColor=none;fillColor=none;align=center;verticalAlign=middle;whiteSpace=wrap;rounded=0;dashed=1;strokeWidth=4;fontSize=21;fontColor=#000000;" vertex="1" parent="1">
                    <mxGeometry x="338" y="1361" width="60" height="30" as="geometry"/>
                </mxCell>
                <mxCell id="238" value="②" style="text;html=1;strokeColor=none;fillColor=none;align=center;verticalAlign=middle;whiteSpace=wrap;rounded=0;dashed=1;strokeWidth=4;fontSize=21;fontColor=#000000;" vertex="1" parent="1">
                    <mxGeometry x="338" y="1273" width="60" height="30" as="geometry"/>
                </mxCell>
                <mxCell id="239" value="④" style="text;html=1;strokeColor=none;fillColor=none;align=center;verticalAlign=middle;whiteSpace=wrap;rounded=0;dashed=1;strokeWidth=4;fontSize=21;fontColor=#000000;" vertex="1" parent="1">
                    <mxGeometry x="600" y="1358" width="60" height="30" as="geometry"/>
                </mxCell>
                <mxCell id="240" value="⑤" style="text;html=1;strokeColor=none;fillColor=none;align=center;verticalAlign=middle;whiteSpace=wrap;rounded=0;dashed=1;strokeWidth=4;fontSize=21;fontColor=#000000;" vertex="1" parent="1">
                    <mxGeometry x="600" y="1447" width="60" height="30" as="geometry"/>
                </mxCell>
                <mxCell id="241" value="" style="rounded=1;whiteSpace=wrap;html=1;fontSize=16;fillColor=#E0D3C3;container=0;" vertex="1" parent="1">
                    <mxGeometry x="345" y="1790" width="95" height="260" as="geometry"/>
                </mxCell>
                <mxCell id="243" value="1" style="rounded=1;whiteSpace=wrap;html=1;fontSize=16;fillColor=#D8B29C;fontColor=default;labelBackgroundColor=none;container=0;strokeWidth=4;dashed=1;" vertex="1" parent="1">
                    <mxGeometry x="362.5" y="1806" width="60" height="56" as="geometry"/>
                </mxCell>
                <mxCell id="244" value="1" style="rounded=1;whiteSpace=wrap;html=1;fontSize=16;fillColor=#D8B29C;fontColor=default;labelBackgroundColor=none;container=0;" vertex="1" parent="1">
                    <mxGeometry x="362.5" y="1891" width="60" height="56" as="geometry"/>
                </mxCell>
                <mxCell id="245" value="" style="edgeStyle=none;html=1;fontSize=26;fontColor=#000000;" edge="1" parent="1" source="247" target="269">
                    <mxGeometry relative="1" as="geometry"/>
                </mxCell>
                <mxCell id="246" value="" style="edgeStyle=none;html=1;fontSize=26;fontColor=#000000;" edge="1" parent="1" source="247" target="269">
                    <mxGeometry relative="1" as="geometry"/>
                </mxCell>
                <mxCell id="247" value="1" style="rounded=1;whiteSpace=wrap;html=1;fontSize=16;fillColor=#D8B29C;fontColor=default;labelBackgroundColor=none;container=0;" vertex="1" parent="1">
                    <mxGeometry x="362.5" y="1977" width="60" height="56" as="geometry"/>
                </mxCell>
                <mxCell id="248" value="" style="group" vertex="1" connectable="0" parent="1">
                    <mxGeometry x="489" y="1960" width="108" height="90" as="geometry"/>
                </mxCell>
                <mxCell id="249" value="" style="rounded=1;whiteSpace=wrap;html=1;fontSize=16;fillColor=#E0D3C3;container=0;" vertex="1" parent="248">
                    <mxGeometry width="95" height="90" as="geometry"/>
                </mxCell>
                <mxCell id="250" value="3" style="rounded=1;whiteSpace=wrap;html=1;fontSize=16;fillColor=#D8B29C;fontColor=default;labelBackgroundColor=none;container=0;" vertex="1" parent="248">
                    <mxGeometry x="17.5" y="18" width="60" height="56" as="geometry"/>
                </mxCell>
                <mxCell id="251" value="" style="rounded=1;whiteSpace=wrap;html=1;fontSize=16;fillColor=#E0D3C3;container=0;" vertex="1" parent="1">
                    <mxGeometry x="610" y="1870" width="95" height="177" as="geometry"/>
                </mxCell>
                <mxCell id="252" value="5" style="rounded=1;whiteSpace=wrap;html=1;fontSize=16;fillColor=#D8B29C;fontColor=default;labelBackgroundColor=none;container=0;strokeWidth=1;" vertex="1" parent="1">
                    <mxGeometry x="627.5" y="1977" width="60" height="56" as="geometry"/>
                </mxCell>
                <mxCell id="253" value="5" style="rounded=1;whiteSpace=wrap;html=1;fontSize=16;fillColor=#D8B29C;fontColor=default;labelBackgroundColor=none;container=0;dashed=1;strokeWidth=4;" vertex="1" parent="1">
                    <mxGeometry x="627.5" y="1891" width="60" height="56" as="geometry"/>
                </mxCell>
                <mxCell id="254" value="" style="rounded=1;whiteSpace=wrap;html=1;fontSize=16;fillColor=#E0D3C3;container=0;strokeWidth=4;strokeColor=#9E9E9E;" vertex="1" parent="1">
                    <mxGeometry x="881" y="1702" width="95" height="345" as="geometry"/>
                </mxCell>
                <mxCell id="255" value="8" style="rounded=1;whiteSpace=wrap;html=1;fontSize=16;fillColor=#D8B29C;fontColor=default;labelBackgroundColor=none;container=0;" vertex="1" parent="1">
                    <mxGeometry x="898.5" y="1891" width="60" height="56" as="geometry"/>
                </mxCell>
                <mxCell id="256" value="8" style="rounded=1;whiteSpace=wrap;html=1;fontSize=16;fillColor=#D8B29C;fontColor=default;labelBackgroundColor=none;container=0;" vertex="1" parent="1">
                    <mxGeometry x="898.5" y="1977" width="60" height="56" as="geometry"/>
                </mxCell>
                <mxCell id="257" value="" style="endArrow=classic;html=1;fontSize=24;exitX=1;exitY=0.5;exitDx=0;exitDy=0;strokeWidth=4;edgeStyle=elbowEdgeStyle;strokeColor=#5E5D65;entryX=0;entryY=0.5;entryDx=0;entryDy=0;" edge="1" parent="1" source="244" target="253">
                    <mxGeometry width="50" height="50" relative="1" as="geometry">
                        <mxPoint x="547.75" y="1617" as="sourcePoint"/>
                        <mxPoint x="620" y="1920" as="targetPoint"/>
                        <Array as="points"/>
                    </mxGeometry>
                </mxCell>
                <mxCell id="258" value="" style="endArrow=classic;html=1;fontSize=24;strokeWidth=4;edgeStyle=elbowEdgeStyle;strokeColor=#5E5D65;entryX=0;entryY=0.5;entryDx=0;entryDy=0;exitX=1;exitY=0.5;exitDx=0;exitDy=0;" edge="1" parent="1" source="253" target="255">
                    <mxGeometry width="50" height="50" relative="1" as="geometry">
                        <mxPoint x="800" y="1870" as="sourcePoint"/>
                        <mxPoint x="637.5" y="1929" as="targetPoint"/>
                        <Array as="points"/>
                    </mxGeometry>
                </mxCell>
                <mxCell id="259" value="" style="endArrow=classic;html=1;fontSize=24;exitX=1;exitY=0.5;exitDx=0;exitDy=0;strokeWidth=4;edgeStyle=elbowEdgeStyle;strokeColor=#5E5D65;entryX=0;entryY=0.5;entryDx=0;entryDy=0;" edge="1" parent="1" source="247" target="250">
                    <mxGeometry width="50" height="50" relative="1" as="geometry">
                        <mxPoint x="432.5" y="1929" as="sourcePoint"/>
                        <mxPoint x="637.5" y="1929" as="targetPoint"/>
                        <Array as="points"/>
                    </mxGeometry>
                </mxCell>
                <mxCell id="260" value="" style="group;strokeWidth=4;" vertex="1" connectable="0" parent="1">
                    <mxGeometry x="745" y="1960" width="95" height="90" as="geometry"/>
                </mxCell>
                <mxCell id="261" value="" style="rounded=1;whiteSpace=wrap;html=1;fontSize=16;fillColor=#E0D3C3;container=0;" vertex="1" parent="260">
                    <mxGeometry width="95" height="90" as="geometry"/>
                </mxCell>
                <mxCell id="262" value="7" style="rounded=1;whiteSpace=wrap;html=1;fontSize=16;fillColor=#D8B29C;fontColor=default;labelBackgroundColor=none;container=0;strokeWidth=4;dashed=1;" vertex="1" parent="260">
                    <mxGeometry x="17.5" y="18" width="60" height="56" as="geometry"/>
                </mxCell>
                <mxCell id="263" value="" style="endArrow=classic;html=1;fontSize=24;exitX=1;exitY=0.5;exitDx=0;exitDy=0;strokeWidth=4;edgeStyle=elbowEdgeStyle;strokeColor=#5E5D65;entryX=0;entryY=0.5;entryDx=0;entryDy=0;" edge="1" parent="1" source="250" target="252">
                    <mxGeometry width="50" height="50" relative="1" as="geometry">
                        <mxPoint x="560" y="2009.2899999999995" as="sourcePoint"/>
                        <mxPoint x="610" y="2050" as="targetPoint"/>
                        <Array as="points"/>
                    </mxGeometry>
                </mxCell>
                <mxCell id="264" value="" style="endArrow=classic;html=1;fontSize=24;exitX=1;exitY=0.5;exitDx=0;exitDy=0;strokeWidth=4;edgeStyle=elbowEdgeStyle;strokeColor=#5E5D65;entryX=0;entryY=0.5;entryDx=0;entryDy=0;" edge="1" parent="1" source="252" target="262">
                    <mxGeometry width="50" height="50" relative="1" as="geometry">
                        <mxPoint x="567.5" y="2016" as="sourcePoint"/>
                        <mxPoint x="637.5" y="2014.9999999999995" as="targetPoint"/>
                        <Array as="points"/>
                    </mxGeometry>
                </mxCell>
                <mxCell id="265" value="" style="endArrow=classic;html=1;fontSize=24;exitX=1;exitY=0.5;exitDx=0;exitDy=0;strokeWidth=4;edgeStyle=elbowEdgeStyle;strokeColor=#5E5D65;entryX=0;entryY=0.5;entryDx=0;entryDy=0;" edge="1" parent="1" source="262" target="256">
                    <mxGeometry width="50" height="50" relative="1" as="geometry">
                        <mxPoint x="697.5" y="2014.9999999999995" as="sourcePoint"/>
                        <mxPoint x="772.5000000000002" y="2016" as="targetPoint"/>
                        <Array as="points"/>
                    </mxGeometry>
                </mxCell>
                <mxCell id="266" value="" style="rounded=1;whiteSpace=wrap;html=1;fontSize=16;fillColor=#8D91AA;container=0;" vertex="1" parent="1">
                    <mxGeometry x="210" y="1702" width="95" height="345" as="geometry"/>
                </mxCell>
                <mxCell id="267" value="" style="rounded=1;whiteSpace=wrap;html=1;fontSize=16;fillColor=#ACD4D6;fontColor=default;labelBackgroundColor=none;container=0;" vertex="1" parent="1">
                    <mxGeometry x="227.5" y="1806" width="60" height="56" as="geometry"/>
                </mxCell>
                <mxCell id="268" value="" style="rounded=1;whiteSpace=wrap;html=1;fontSize=16;fillColor=#ACD4D6;fontColor=default;labelBackgroundColor=none;container=0;" vertex="1" parent="1">
                    <mxGeometry x="227.5" y="1892" width="60" height="56" as="geometry"/>
                </mxCell>
                <mxCell id="269" value="" style="rounded=1;whiteSpace=wrap;html=1;fontSize=16;fillColor=#ACD4D6;fontColor=default;labelBackgroundColor=none;container=0;" vertex="1" parent="1">
                    <mxGeometry x="227.5" y="1977" width="60" height="56" as="geometry"/>
                </mxCell>
                <mxCell id="270" value="" style="endArrow=classic;html=1;fontSize=24;exitX=1;exitY=0.5;exitDx=0;exitDy=0;strokeWidth=4;edgeStyle=elbowEdgeStyle;strokeColor=#5E5D65;" edge="1" parent="1" source="269">
                    <mxGeometry width="50" height="50" relative="1" as="geometry">
                        <mxPoint x="432.5" y="2014.9999999999995" as="sourcePoint"/>
                        <mxPoint x="370" y="2005" as="targetPoint"/>
                        <Array as="points"/>
                    </mxGeometry>
                </mxCell>
                <mxCell id="271" value="" style="endArrow=classic;html=1;fontSize=24;exitX=1;exitY=0.5;exitDx=0;exitDy=0;strokeWidth=4;edgeStyle=elbowEdgeStyle;strokeColor=#5E5D65;entryX=0;entryY=0.5;entryDx=0;entryDy=0;" edge="1" parent="1" source="268" target="244">
                    <mxGeometry width="50" height="50" relative="1" as="geometry">
                        <mxPoint x="297.5" y="2014.9999999999995" as="sourcePoint"/>
                        <mxPoint x="380" y="2015" as="targetPoint"/>
                        <Array as="points"/>
                    </mxGeometry>
                </mxCell>
                <mxCell id="272" value="" style="endArrow=classic;html=1;fontSize=24;exitX=1;exitY=0.5;exitDx=0;exitDy=0;strokeWidth=4;edgeStyle=elbowEdgeStyle;strokeColor=#5E5D65;entryX=0;entryY=0.5;entryDx=0;entryDy=0;" edge="1" parent="1" source="267" target="243">
                    <mxGeometry width="50" height="50" relative="1" as="geometry">
                        <mxPoint x="297.5" y="1929.9999999999995" as="sourcePoint"/>
                        <mxPoint x="372.5" y="1929" as="targetPoint"/>
                        <Array as="points"/>
                    </mxGeometry>
                </mxCell>
                <mxCell id="273" value="&lt;font style=&quot;font-size: 26px;&quot;&gt;head&lt;/font&gt;" style="text;html=1;align=center;verticalAlign=middle;resizable=0;points=[];autosize=1;strokeColor=none;fillColor=none;fontColor=#000000;" vertex="1" parent="1">
                    <mxGeometry x="121" y="1760" width="80" height="40" as="geometry"/>
                </mxCell>
                <mxCell id="278" value="&lt;span style=&quot;font-size: 21px;&quot;&gt;prev&lt;/span&gt;" style="text;html=1;strokeColor=none;fillColor=none;align=center;verticalAlign=middle;whiteSpace=wrap;rounded=0;fontSize=18;fontColor=#000000;" vertex="1" parent="1">
                    <mxGeometry x="574" y="1554" width="60" height="30" as="geometry"/>
                </mxCell>
                <mxCell id="279" value="" style="endArrow=classic;html=1;fontSize=24;exitX=0.5;exitY=1;exitDx=0;exitDy=0;entryX=1;entryY=0.5;entryDx=0;entryDy=0;strokeWidth=4;strokeColor=#E2E2E2;dashed=1;" edge="1" parent="1" source="278" target="243">
                    <mxGeometry width="50" height="50" relative="1" as="geometry">
                        <mxPoint x="1060" y="1880" as="sourcePoint"/>
                        <mxPoint x="968.5000000000002" y="1929" as="targetPoint"/>
                    </mxGeometry>
                </mxCell>
                <mxCell id="280" value="" style="endArrow=classic;html=1;fontSize=24;exitX=0.5;exitY=1;exitDx=0;exitDy=0;entryX=1;entryY=0;entryDx=0;entryDy=0;strokeWidth=4;strokeColor=#E2E2E2;dashed=1;" edge="1" parent="1" source="278" target="253">
                    <mxGeometry width="50" height="50" relative="1" as="geometry">
                        <mxPoint x="762.5" y="1831.0000000000002" as="sourcePoint"/>
                        <mxPoint x="432.5" y="1844" as="targetPoint"/>
                    </mxGeometry>
                </mxCell>
                <mxCell id="281" value="" style="endArrow=classic;html=1;fontSize=24;exitX=0.5;exitY=1;exitDx=0;exitDy=0;entryX=0;entryY=0.25;entryDx=0;entryDy=0;strokeWidth=4;strokeColor=#E2E2E2;dashed=1;" edge="1" parent="1" source="278" target="262">
                    <mxGeometry width="50" height="50" relative="1" as="geometry">
                        <mxPoint x="792.5" y="1846.0000000000002" as="sourcePoint"/>
                        <mxPoint x="697.5" y="1901" as="targetPoint"/>
                    </mxGeometry>
                </mxCell>
                <mxCell id="287" value="" style="rounded=1;whiteSpace=wrap;html=1;fontSize=16;fillColor=#ACD4D6;fontColor=default;labelBackgroundColor=none;container=0;" vertex="1" parent="1">
                    <mxGeometry x="227.5" y="1720" width="60" height="56" as="geometry"/>
                </mxCell>
                <mxCell id="289" value="" style="endArrow=classic;html=1;fontSize=24;entryX=1;entryY=0.5;entryDx=0;entryDy=0;strokeWidth=4;strokeColor=#E2E2E2;dashed=1;exitX=0.5;exitY=1;exitDx=0;exitDy=0;" edge="1" parent="1" source="278" target="287">
                    <mxGeometry width="50" height="50" relative="1" as="geometry">
                        <mxPoint x="590" y="1709" as="sourcePoint"/>
                        <mxPoint x="432.5" y="1844" as="targetPoint"/>
                    </mxGeometry>
                </mxCell>
                <mxCell id="290" value="8" style="rounded=1;whiteSpace=wrap;html=1;fontSize=16;fillColor=#D8B29C;fontColor=default;labelBackgroundColor=none;container=0;" vertex="1" parent="1">
                    <mxGeometry x="898.5" y="1806" width="60" height="56" as="geometry"/>
                </mxCell>
                <mxCell id="291" value="8" style="rounded=1;whiteSpace=wrap;html=1;fontSize=16;fillColor=#D8B29C;fontColor=default;labelBackgroundColor=none;container=0;" vertex="1" parent="1">
                    <mxGeometry x="898.5" y="1720" width="60" height="56" as="geometry"/>
                </mxCell>
                <mxCell id="293" value="" style="rounded=1;whiteSpace=wrap;html=1;fontSize=16;fillColor=#E0D3C3;container=0;" vertex="1" parent="1">
                    <mxGeometry x="1016" y="1870" width="95" height="177" as="geometry"/>
                </mxCell>
                <mxCell id="294" value="9" style="rounded=1;whiteSpace=wrap;html=1;fontSize=16;fillColor=#D8B29C;fontColor=default;labelBackgroundColor=none;container=0;" vertex="1" parent="1">
                    <mxGeometry x="1033.5" y="1891" width="60" height="56" as="geometry"/>
                </mxCell>
                <mxCell id="295" value="9" style="rounded=1;whiteSpace=wrap;html=1;fontSize=16;fillColor=#D8B29C;fontColor=default;labelBackgroundColor=none;container=0;" vertex="1" parent="1">
                    <mxGeometry x="1033.5" y="1977" width="60" height="56" as="geometry"/>
                </mxCell>
                <mxCell id="296" value="" style="endArrow=classic;html=1;fontSize=24;exitX=1;exitY=0.5;exitDx=0;exitDy=0;strokeWidth=4;edgeStyle=elbowEdgeStyle;strokeColor=#5E5D65;entryX=0;entryY=0.5;entryDx=0;entryDy=0;" edge="1" parent="1">
                    <mxGeometry width="50" height="50" relative="1" as="geometry">
                        <mxPoint x="958.5" y="2007" as="sourcePoint"/>
                        <mxPoint x="1034.5000000000002" y="2006" as="targetPoint"/>
                        <Array as="points"/>
                    </mxGeometry>
                </mxCell>
                <mxCell id="297" value="" style="endArrow=classic;html=1;fontSize=24;exitX=1;exitY=0.5;exitDx=0;exitDy=0;strokeWidth=4;edgeStyle=elbowEdgeStyle;strokeColor=#5E5D65;entryX=0;entryY=0.5;entryDx=0;entryDy=0;" edge="1" parent="1">
                    <mxGeometry width="50" height="50" relative="1" as="geometry">
                        <mxPoint x="958.5000000000002" y="1920.29" as="sourcePoint"/>
                        <mxPoint x="1034.5" y="1919.29" as="targetPoint"/>
                        <Array as="points"/>
                    </mxGeometry>
                </mxCell>
                <mxCell id="298" value="" style="endArrow=classic;html=1;fontSize=24;exitX=1;exitY=0.5;exitDx=0;exitDy=0;strokeWidth=4;edgeStyle=elbowEdgeStyle;strokeColor=#5E5D65;entryX=0;entryY=0.5;entryDx=0;entryDy=0;" edge="1" parent="1" source="243" target="290">
                    <mxGeometry width="50" height="50" relative="1" as="geometry">
                        <mxPoint x="432.5" y="1928.9999999999995" as="sourcePoint"/>
                        <mxPoint x="637.5" y="1928.9999999999995" as="targetPoint"/>
                        <Array as="points"/>
                    </mxGeometry>
                </mxCell>
                <mxCell id="299" value="" style="endArrow=classic;html=1;fontSize=24;exitX=1;exitY=0.5;exitDx=0;exitDy=0;strokeWidth=4;edgeStyle=elbowEdgeStyle;strokeColor=#5E5D65;entryX=0;entryY=0.5;entryDx=0;entryDy=0;" edge="1" parent="1" source="287" target="291">
                    <mxGeometry width="50" height="50" relative="1" as="geometry">
                        <mxPoint x="432.5" y="1844" as="sourcePoint"/>
                        <mxPoint x="908.5000000000002" y="1844" as="targetPoint"/>
                        <Array as="points"/>
                    </mxGeometry>
                </mxCell>
                <mxCell id="300" value="" style="rounded=1;whiteSpace=wrap;html=1;fontSize=16;fillColor=#E0D3C3;container=0;" vertex="1" parent="1">
                    <mxGeometry x="355" y="2390" width="95" height="260" as="geometry"/>
                </mxCell>
                <mxCell id="301" value="1" style="rounded=1;whiteSpace=wrap;html=1;fontSize=16;fillColor=#D8B29C;fontColor=default;labelBackgroundColor=none;container=0;strokeWidth=1;" vertex="1" parent="1">
                    <mxGeometry x="372.5" y="2406" width="60" height="56" as="geometry"/>
                </mxCell>
                <mxCell id="302" value="1" style="rounded=1;whiteSpace=wrap;html=1;fontSize=16;fillColor=#D8B29C;fontColor=default;labelBackgroundColor=none;container=0;" vertex="1" parent="1">
                    <mxGeometry x="372.5" y="2491" width="60" height="56" as="geometry"/>
                </mxCell>
                <mxCell id="303" value="" style="edgeStyle=none;html=1;fontSize=26;fontColor=#000000;" edge="1" parent="1" source="305" target="327">
                    <mxGeometry relative="1" as="geometry"/>
                </mxCell>
                <mxCell id="304" value="" style="edgeStyle=none;html=1;fontSize=26;fontColor=#000000;" edge="1" parent="1" source="305" target="327">
                    <mxGeometry relative="1" as="geometry"/>
                </mxCell>
                <mxCell id="305" value="1" style="rounded=1;whiteSpace=wrap;html=1;fontSize=16;fillColor=#D8B29C;fontColor=default;labelBackgroundColor=none;container=0;" vertex="1" parent="1">
                    <mxGeometry x="372.5" y="2577" width="60" height="56" as="geometry"/>
                </mxCell>
                <mxCell id="306" value="" style="group" vertex="1" connectable="0" parent="1">
                    <mxGeometry x="499" y="2560" width="108" height="90" as="geometry"/>
                </mxCell>
                <mxCell id="307" value="" style="rounded=1;whiteSpace=wrap;html=1;fontSize=16;fillColor=#E0D3C3;container=0;" vertex="1" parent="306">
                    <mxGeometry width="95" height="90" as="geometry"/>
                </mxCell>
                <mxCell id="308" value="3" style="rounded=1;whiteSpace=wrap;html=1;fontSize=16;fillColor=#D8B29C;fontColor=default;labelBackgroundColor=none;container=0;" vertex="1" parent="306">
                    <mxGeometry x="17.5" y="18" width="60" height="56" as="geometry"/>
                </mxCell>
                <mxCell id="309" value="" style="rounded=1;whiteSpace=wrap;html=1;fontSize=16;fillColor=#E0D3C3;container=0;" vertex="1" parent="1">
                    <mxGeometry x="620" y="2470" width="95" height="177" as="geometry"/>
                </mxCell>
                <mxCell id="310" value="5" style="rounded=1;whiteSpace=wrap;html=1;fontSize=16;fillColor=#D8B29C;fontColor=default;labelBackgroundColor=none;container=0;strokeWidth=1;" vertex="1" parent="1">
                    <mxGeometry x="637.5" y="2577" width="60" height="56" as="geometry"/>
                </mxCell>
                <mxCell id="311" value="5" style="rounded=1;whiteSpace=wrap;html=1;fontSize=16;fillColor=#D8B29C;fontColor=default;labelBackgroundColor=none;container=0;strokeWidth=1;" vertex="1" parent="1">
                    <mxGeometry x="637.5" y="2491" width="60" height="56" as="geometry"/>
                </mxCell>
                <mxCell id="312" value="" style="rounded=1;whiteSpace=wrap;html=1;fontSize=16;fillColor=#E0D3C3;container=0;strokeWidth=4;strokeColor=#9E9E9E;" vertex="1" parent="1">
                    <mxGeometry x="891" y="2302" width="95" height="345" as="geometry"/>
                </mxCell>
                <mxCell id="313" value="8" style="rounded=1;whiteSpace=wrap;html=1;fontSize=16;fillColor=#D8B29C;fontColor=default;labelBackgroundColor=none;container=0;" vertex="1" parent="1">
                    <mxGeometry x="908.5" y="2491" width="60" height="56" as="geometry"/>
                </mxCell>
                <mxCell id="314" value="8" style="rounded=1;whiteSpace=wrap;html=1;fontSize=16;fillColor=#D8B29C;fontColor=default;labelBackgroundColor=none;container=0;" vertex="1" parent="1">
                    <mxGeometry x="908.5" y="2577" width="60" height="56" as="geometry"/>
                </mxCell>
                <mxCell id="315" value="" style="endArrow=classic;html=1;fontSize=24;exitX=1;exitY=0.5;exitDx=0;exitDy=0;strokeWidth=4;edgeStyle=elbowEdgeStyle;strokeColor=#5E5D65;entryX=0;entryY=0.5;entryDx=0;entryDy=0;" edge="1" parent="1" source="302" target="311">
                    <mxGeometry width="50" height="50" relative="1" as="geometry">
                        <mxPoint x="557.75" y="2217" as="sourcePoint"/>
                        <mxPoint x="630" y="2520" as="targetPoint"/>
                        <Array as="points"/>
                    </mxGeometry>
                </mxCell>
                <mxCell id="316" value="" style="endArrow=classic;html=1;fontSize=24;strokeWidth=4;edgeStyle=elbowEdgeStyle;strokeColor=#5E5D65;entryX=0;entryY=0.5;entryDx=0;entryDy=0;exitX=1;exitY=0.5;exitDx=0;exitDy=0;" edge="1" parent="1" source="311" target="313">
                    <mxGeometry width="50" height="50" relative="1" as="geometry">
                        <mxPoint x="810" y="2470" as="sourcePoint"/>
                        <mxPoint x="647.5" y="2529" as="targetPoint"/>
                        <Array as="points"/>
                    </mxGeometry>
                </mxCell>
                <mxCell id="317" value="" style="endArrow=classic;html=1;fontSize=24;exitX=1;exitY=0.5;exitDx=0;exitDy=0;strokeWidth=4;edgeStyle=elbowEdgeStyle;strokeColor=#5E5D65;entryX=0;entryY=0.5;entryDx=0;entryDy=0;" edge="1" parent="1" source="305" target="308">
                    <mxGeometry width="50" height="50" relative="1" as="geometry">
                        <mxPoint x="442.5" y="2529" as="sourcePoint"/>
                        <mxPoint x="647.5" y="2529" as="targetPoint"/>
                        <Array as="points"/>
                    </mxGeometry>
                </mxCell>
                <mxCell id="318" value="" style="group;strokeWidth=4;" vertex="1" connectable="0" parent="1">
                    <mxGeometry x="755" y="2560" width="95" height="90" as="geometry"/>
                </mxCell>
                <mxCell id="319" value="" style="rounded=1;whiteSpace=wrap;html=1;fontSize=16;fillColor=#E0D3C3;container=0;" vertex="1" parent="318">
                    <mxGeometry width="95" height="90" as="geometry"/>
                </mxCell>
                <mxCell id="320" value="7" style="rounded=1;whiteSpace=wrap;html=1;fontSize=16;fillColor=#D8B29C;fontColor=default;labelBackgroundColor=none;container=0;strokeWidth=1;" vertex="1" parent="318">
                    <mxGeometry x="17.5" y="18" width="60" height="56" as="geometry"/>
                </mxCell>
                <mxCell id="321" value="" style="endArrow=classic;html=1;fontSize=24;exitX=1;exitY=0.5;exitDx=0;exitDy=0;strokeWidth=4;edgeStyle=elbowEdgeStyle;strokeColor=#5E5D65;entryX=0;entryY=0.5;entryDx=0;entryDy=0;" edge="1" parent="1" source="308" target="310">
                    <mxGeometry width="50" height="50" relative="1" as="geometry">
                        <mxPoint x="570" y="2609.2899999999995" as="sourcePoint"/>
                        <mxPoint x="620" y="2650" as="targetPoint"/>
                        <Array as="points"/>
                    </mxGeometry>
                </mxCell>
                <mxCell id="322" value="" style="endArrow=classic;html=1;fontSize=24;exitX=1;exitY=0.5;exitDx=0;exitDy=0;strokeWidth=4;edgeStyle=elbowEdgeStyle;strokeColor=#5E5D65;entryX=0;entryY=0.5;entryDx=0;entryDy=0;" edge="1" parent="1" source="310" target="320">
                    <mxGeometry width="50" height="50" relative="1" as="geometry">
                        <mxPoint x="577.5" y="2616" as="sourcePoint"/>
                        <mxPoint x="647.5" y="2614.9999999999995" as="targetPoint"/>
                        <Array as="points"/>
                    </mxGeometry>
                </mxCell>
                <mxCell id="323" value="" style="endArrow=classic;html=1;fontSize=24;exitX=1;exitY=0.5;exitDx=0;exitDy=0;strokeWidth=4;edgeStyle=elbowEdgeStyle;strokeColor=#5E5D65;entryX=0;entryY=0.5;entryDx=0;entryDy=0;" edge="1" parent="1" source="320" target="314">
                    <mxGeometry width="50" height="50" relative="1" as="geometry">
                        <mxPoint x="707.5" y="2614.9999999999995" as="sourcePoint"/>
                        <mxPoint x="782.5000000000002" y="2616" as="targetPoint"/>
                        <Array as="points"/>
                    </mxGeometry>
                </mxCell>
                <mxCell id="324" value="" style="rounded=1;whiteSpace=wrap;html=1;fontSize=16;fillColor=#8D91AA;container=0;" vertex="1" parent="1">
                    <mxGeometry x="220" y="2302" width="95" height="345" as="geometry"/>
                </mxCell>
                <mxCell id="325" value="" style="rounded=1;whiteSpace=wrap;html=1;fontSize=16;fillColor=#ACD4D6;fontColor=default;labelBackgroundColor=none;container=0;" vertex="1" parent="1">
                    <mxGeometry x="237.5" y="2406" width="60" height="56" as="geometry"/>
                </mxCell>
                <mxCell id="326" value="" style="rounded=1;whiteSpace=wrap;html=1;fontSize=16;fillColor=#ACD4D6;fontColor=default;labelBackgroundColor=none;container=0;" vertex="1" parent="1">
                    <mxGeometry x="237.5" y="2492" width="60" height="56" as="geometry"/>
                </mxCell>
                <mxCell id="327" value="" style="rounded=1;whiteSpace=wrap;html=1;fontSize=16;fillColor=#ACD4D6;fontColor=default;labelBackgroundColor=none;container=0;" vertex="1" parent="1">
                    <mxGeometry x="237.5" y="2577" width="60" height="56" as="geometry"/>
                </mxCell>
                <mxCell id="328" value="" style="endArrow=classic;html=1;fontSize=24;exitX=1;exitY=0.5;exitDx=0;exitDy=0;strokeWidth=4;edgeStyle=elbowEdgeStyle;strokeColor=#5E5D65;" edge="1" parent="1" source="327">
                    <mxGeometry width="50" height="50" relative="1" as="geometry">
                        <mxPoint x="442.5" y="2614.9999999999995" as="sourcePoint"/>
                        <mxPoint x="380" y="2605" as="targetPoint"/>
                        <Array as="points"/>
                    </mxGeometry>
                </mxCell>
                <mxCell id="329" value="" style="endArrow=classic;html=1;fontSize=24;exitX=1;exitY=0.5;exitDx=0;exitDy=0;strokeWidth=4;edgeStyle=elbowEdgeStyle;strokeColor=#5E5D65;entryX=0;entryY=0.5;entryDx=0;entryDy=0;" edge="1" parent="1" source="326" target="302">
                    <mxGeometry width="50" height="50" relative="1" as="geometry">
                        <mxPoint x="307.5" y="2614.9999999999995" as="sourcePoint"/>
                        <mxPoint x="390" y="2615" as="targetPoint"/>
                        <Array as="points"/>
                    </mxGeometry>
                </mxCell>
                <mxCell id="330" value="" style="endArrow=classic;html=1;fontSize=24;exitX=1;exitY=0.5;exitDx=0;exitDy=0;strokeWidth=4;edgeStyle=elbowEdgeStyle;strokeColor=#5E5D65;entryX=0;entryY=0.5;entryDx=0;entryDy=0;" edge="1" parent="1" source="325" target="301">
                    <mxGeometry width="50" height="50" relative="1" as="geometry">
                        <mxPoint x="307.5" y="2529.9999999999995" as="sourcePoint"/>
                        <mxPoint x="382.5" y="2529" as="targetPoint"/>
                        <Array as="points"/>
                    </mxGeometry>
                </mxCell>
                <mxCell id="335" value="" style="rounded=1;whiteSpace=wrap;html=1;fontSize=16;fillColor=#ACD4D6;fontColor=default;labelBackgroundColor=none;container=0;" vertex="1" parent="1">
                    <mxGeometry x="237.5" y="2320" width="60" height="56" as="geometry"/>
                </mxCell>
                <mxCell id="337" value="8" style="rounded=1;whiteSpace=wrap;html=1;fontSize=16;fillColor=#D8B29C;fontColor=default;labelBackgroundColor=none;container=0;" vertex="1" parent="1">
                    <mxGeometry x="908.5" y="2406" width="60" height="56" as="geometry"/>
                </mxCell>
                <mxCell id="338" value="8" style="rounded=1;whiteSpace=wrap;html=1;fontSize=16;fillColor=#D8B29C;fontColor=default;labelBackgroundColor=none;container=0;" vertex="1" parent="1">
                    <mxGeometry x="908.5" y="2320" width="60" height="56" as="geometry"/>
                </mxCell>
                <mxCell id="339" value="" style="rounded=1;whiteSpace=wrap;html=1;fontSize=16;fillColor=#E0D3C3;container=0;" vertex="1" parent="1">
                    <mxGeometry x="1026" y="2470" width="95" height="177" as="geometry"/>
                </mxCell>
                <mxCell id="340" value="9" style="rounded=1;whiteSpace=wrap;html=1;fontSize=16;fillColor=#D8B29C;fontColor=default;labelBackgroundColor=none;container=0;" vertex="1" parent="1">
                    <mxGeometry x="1043.5" y="2491" width="60" height="56" as="geometry"/>
                </mxCell>
                <mxCell id="341" value="9" style="rounded=1;whiteSpace=wrap;html=1;fontSize=16;fillColor=#D8B29C;fontColor=default;labelBackgroundColor=none;container=0;" vertex="1" parent="1">
                    <mxGeometry x="1043.5" y="2577" width="60" height="56" as="geometry"/>
                </mxCell>
                <mxCell id="342" value="" style="endArrow=classic;html=1;fontSize=24;exitX=1;exitY=0.5;exitDx=0;exitDy=0;strokeWidth=4;edgeStyle=elbowEdgeStyle;strokeColor=#5E5D65;entryX=0;entryY=0.5;entryDx=0;entryDy=0;" edge="1" parent="1">
                    <mxGeometry width="50" height="50" relative="1" as="geometry">
                        <mxPoint x="968.5000000000002" y="2607" as="sourcePoint"/>
                        <mxPoint x="1044.5" y="2606" as="targetPoint"/>
                        <Array as="points"/>
                    </mxGeometry>
                </mxCell>
                <mxCell id="343" value="" style="endArrow=classic;html=1;fontSize=24;exitX=1;exitY=0.5;exitDx=0;exitDy=0;strokeWidth=4;edgeStyle=elbowEdgeStyle;strokeColor=#5E5D65;entryX=0;entryY=0.5;entryDx=0;entryDy=0;" edge="1" parent="1">
                    <mxGeometry width="50" height="50" relative="1" as="geometry">
                        <mxPoint x="968.5000000000002" y="2520.29" as="sourcePoint"/>
                        <mxPoint x="1044.5" y="2519.29" as="targetPoint"/>
                        <Array as="points"/>
                    </mxGeometry>
                </mxCell>
                <mxCell id="347" value="" style="endArrow=classic;html=1;fontSize=24;exitX=1;exitY=0.5;exitDx=0;exitDy=0;strokeWidth=4;edgeStyle=elbowEdgeStyle;strokeColor=#5E5D65;" edge="1" parent="1" source="301">
                    <mxGeometry width="50" height="50" relative="1" as="geometry">
                        <mxPoint x="442.5" y="2529" as="sourcePoint"/>
                        <mxPoint x="616" y="2434" as="targetPoint"/>
                        <Array as="points"/>
                    </mxGeometry>
                </mxCell>
                <mxCell id="351" value="虽然 level2 上面的节点还没有连接，&lt;br&gt;但是这个节点后面的链表都是完整的，&lt;br&gt;可以正常 Seek" style="text;html=1;strokeColor=none;fillColor=none;align=center;verticalAlign=middle;whiteSpace=wrap;rounded=0;strokeWidth=1;fontSize=21;fontColor=#000000;" vertex="1" parent="1">
                    <mxGeometry x="469" y="2250" width="387" height="99" as="geometry"/>
                </mxCell>
                <mxCell id="352" value="" style="endArrow=classic;html=1;fontSize=24;entryX=0.5;entryY=0;entryDx=0;entryDy=0;strokeWidth=4;strokeColor=#E2E2E2;dashed=1;exitX=0.5;exitY=1;exitDx=0;exitDy=0;" edge="1" parent="1" source="351" target="311">
                    <mxGeometry width="50" height="50" relative="1" as="geometry">
                        <mxPoint x="795.5000000000002" y="2357.0000000000005" as="sourcePoint"/>
                        <mxPoint x="725" y="2443" as="targetPoint"/>
                    </mxGeometry>
                </mxCell>
            </root>
        </mxGraphModel>
    </diagram>
</mxfile>